# xmcd
#
# Track frame offsets:
#	150
#	25102
#	49400
#	62072
#	102432
#	121895
#	142797
#	196250
#	209659
#	227890
#	258670
#	269957
#
# Disc length: 3720 seconds
#
# Revision: 2
# Processed by: cddbd v1.5.1PL0 Copyright (c) Steve Scherf et al.
# Submitted via: EasyCDDAExtractor 6.2.0.3
#
DISCID=bb0e860c
DTITLE=The Siegel-Schwall Band - The Complete Vanguard Recordings and More - CD 
DTITLE=2
DYEAR=2001
DGENRE=Blues
TTITLE0=I'm A King Bee
TTITLE1=Slow Blues In A
TTITLE2=You Don't Love Me
TTITLE3=I.S.P.I. Blues (Illinois State Psychiatric Institution)
TTITLE4=Bring It With You When You Come
TTITLE5=My Baby Thinks I Don't Love Her
TTITLE6=That's Why I Treat My Baby So Fine
TTITLE7=I Liked It Where We Walked
TTITLE8=Easy Rider
TTITLE9=I Like The Way You Rock
TTITLE10=Don't Want No Woman
TTITLE11=Sneaky Pete (Take Two)
EXTD=
EXTT0=
EXTT1=
EXTT2=
EXTT3=
EXTT4=
EXTT5=
EXTT6=
EXTT7=
EXTT8=
EXTT9=
EXTT10=
EXTT11=
PLAYORDER=
